<?xml version="1.0" encoding="utf-8"?>
<svg version="1.1" xmlns:xlink="http://www.w3.org/1999/xlink" width="32px" height="27px" xmlns="http://www.w3.org/2000/svg">
  <g transform="matrix(1 0 0 1 -13 -55 )">
    <path d="M 31.604166666666668 22.00078125  C 31.868055555555554 22.26796875  32 22.584375  32 22.95  L 32 25.65  C 32 26.015625  31.868055555555554 26.33203125  31.604166666666668 26.59921875  C 31.340277777777782 26.86640625  31.027777777777782 27  30.666666666666668 27  L 1.3333333333333333 27  C 0.9722222222222223 27  0.6597222222222222 26.86640625  0.3958333333333333 26.59921875  C 0.13194444444444445 26.33203125  0 26.015625  0 25.65  L 0 22.95  C 0 22.584375  0.13194444444444445 22.26796875  0.3958333333333333 22.00078125  C 0.6597222222222222 21.73359375  0.9722222222222223 21.6  1.3333333333333333 21.6  L 30.666666666666668 21.6  C 31.027777777777782 21.6  31.340277777777782 21.73359375  31.604166666666668 22.00078125  Z M 31.604166666666668 11.200781249999999  C 31.868055555555554 11.467968749999999  32 11.784374999999999  32 12.149999999999999  L 32 14.850000000000001  C 32 15.215625  31.868055555555554 15.53203125  31.604166666666668 15.799218750000001  C 31.340277777777782 16.066406249999996  31.027777777777782 16.2  30.666666666666668 16  L 1.3333333333333333 16  C 0.9722222222222223 16.2  0.6597222222222222 16.066406249999996  0.3958333333333333 15.799218750000001  C 0.13194444444444445 15.53203125  0 15.215625  0 14.850000000000001  L 0 12.149999999999999  C 0 11.784374999999999  0.13194444444444445 11.467968749999999  0.3958333333333333 11.200781249999999  C 0.6597222222222222 10.933593750000002  0.9722222222222223 10.8  1.3333333333333333 11  L 30.666666666666668 11  C 31.027777777777782 10.8  31.340277777777782 10.933593750000002  31.604166666666668 11.200781249999999  Z M 31.604166666666668 0.4007812500000012  C 31.868055555555554 0.667968749999998  32 0.984374999999998  32 1.3500000000000012  L 32 4.050000000000001  C 32 4.415624999999998  31.868055555555554 4.732031249999998  31.604166666666668 4.999218750000001  C 31.340277777777782 5.2664062499999975  31.027777777777782 5.399999999999999  30.666666666666668 5.399999999999999  L 1.3333333333333333 5.399999999999999  C 0.9722222222222223 5.399999999999999  0.6597222222222222 5.2664062499999975  0.3958333333333333 4.999218750000001  C 0.13194444444444445 4.732031249999998  0 4.415624999999998  0 4.050000000000001  L 0 1.3500000000000012  C 0 0.984374999999998  0.13194444444444445 0.667968749999998  0.3958333333333333 0.4007812500000012  C 0.6597222222222222 0.1335937499999984  0.9722222222222223 0  1.3333333333333333 0  L 30.666666666666668 0  C 31.027777777777782 0  31.340277777777782 0.1335937499999984  31.604166666666668 0.4007812500000012  Z " fill-rule="nonzero" fill="#000000" stroke="none" transform="matrix(1 0 0 1 13 55 )" />
  </g>
</svg>