<?xml version="1.0" encoding="utf-8"?>
<svg version="1.1" xmlns:xlink="http://www.w3.org/1999/xlink" width="49px" height="49px" xmlns="http://www.w3.org/2000/svg">
  <defs>
    <filter x="338px" y="1236px" width="49px" height="49px" filterUnits="userSpaceOnUse" id="filter5">
      <feOffset dx="1" dy="1" in="SourceAlpha" result="shadowOffsetInner" />
      <feGaussianBlur stdDeviation="7.5" in="shadowOffsetInner" result="shadowGaussian" />
      <feComposite in2="shadowGaussian" operator="atop" in="SourceAlpha" result="shadowComposite" />
      <feColorMatrix type="matrix" values="0 0 0 0 0  0 0 0 0 0  0 0 0 0 0  0 0 0 0.14509803921568626 0  " in="shadowComposite" />
    </filter>
    <g id="widget6">
      <path d="M 12.982572115384617 11.637051039697544  L 13.542067307692307 11.074354127284183  L 16.4765625 8.081285444234403  L 12.411658653846153 7.458727158160051  L 11.658052884615383 7.339004410838059  L 11.315504807692307 6.620667926906111  L 9.5 2.7655954631379953  L 9.5 14.294896030245747  L 10.173677884615383 14.66603654694392  L 13.8046875 16.677378701953373  L 13.119591346153847 12.427221172022685  L 12.982572115384617 11.637051039697544  Z M 18.97716346153846 7.225267800882167  C 19.04567307692308 7.444759504305817  18.954326923076927 7.682209619827765  18.703125 7.937618147448015  L 14.55829326923077 12.175803402646503  L 15.540264423076923 18.16194076874606  C 15.578325320512821 18.425330812854444  15.555488782051285 18.63085486242386  15.471754807692307 18.778512917454314  C 15.388020833333334 18.926170972484773  15.258613782051285 19  15.083533653846153 19  C 14.954126602564104 19  14.801883012820515 18.952110901071205  14.626802884615383 18.85633270321361  L 9.5 16.03087586641462  L 4.373197115384615 18.85633270321361  C 4.198116987179487 18.952110901071205  4.045873397435898 19  3.916466346153846 19  C 3.7413862179487185 19  3.611979166666667 18.926170972484773  3.5282451923076925 18.778512917454314  C 3.4445112179487185 18.63085486242386  3.4216746794871793 18.425330812854444  3.4597355769230766 18.16194076874606  L 4.441706730769231 12.175803402646503  L 0.2854567307692308 7.937618147448015  C 0.04186698717948716 7.682209619827765  -0.04567307692307693 7.444759504305817  0.022836538461538464 7.225267800882167  C 0.09134615384615385 7.005776097458516  0.296875 6.868094938038228  0.6394230769230769 6.812224322621298  L 6.37139423076923 5.938248267170762  L 8.940504807692308 0.4908632640201629  C 9.092748397435898 0.16362108800672026  9.279246794871796 0  9.5 0  C 9.713141025641027 0  9.899639423076923 0.16362108800672026  10.059495192307693 0.4908632640201629  L 12.62860576923077 5.938248267170762  L 18.360576923076923 6.812224322621298  C 18.703125000000004 6.868094938038228  18.90865384615385 7.005776097458516  18.97716346153846 7.225267800882167  Z " fill-rule="nonzero" fill="#f67440" stroke="none" transform="matrix(1 0 0 1 352 1250 )" />
    </g>
  </defs>
  <g transform="matrix(1 0 0 1 -338 -1236 )">
    <use xlink:href="#widget6" filter="url(#filter5)" />
    <use xlink:href="#widget6" />
  </g>
</svg>