<?xml version="1.0" encoding="UTF-8"?><svg id="Camada_2" xmlns="http://www.w3.org/2000/svg" viewBox="0 0 437.26 68.57"><defs><style>.cls-1{fill:#706f6f;}.cls-2{fill:#ea5b0c;}</style></defs><g id="Camada_1-2"><path class="cls-1" d="M192.75,5.1l8.51,51.84c.73-2.13,1.73-3.14,3.66-4.27L227.03,3.87c-11.22-5.54-25.6-5.12-34.28,1.23Z"/><path class="cls-2" d="M207.11,54.38c-3.69,1.87-5.17,6.39-3.3,10.08s6.39,5.17,10.08,3.3,5.17-6.39,3.3-10.08l13.28-52.58-23.36,49.28Z"/><path class="cls-1" d="M6.66,68.53c4.7-15.06,9.11-31.63,13.23-49.72L0,19.32l1.32-5.16c.7-2.76,1.43-5.78,2.18-9.06,8.78,.06,19.03,.09,30.73,.09l11.48-.05h11.15l6.05-.05-1.24,4.55c-.64,2.44-1.15,4.46-1.53,6.06s-.66,2.8-.83,3.61c-6.55-.34-11.98-.51-16.28-.51h-3.25c-1.62,5.47-3.04,10.53-4.26,15.17-1.74,6.65-3.36,13.1-4.87,19.37-1.5,6.26-2.66,11.33-3.47,15.19-5.07-.06-8.34-.09-9.83-.09-1.33,0-4.9,.03-10.7,.09Z"/><path class="cls-1" d="M52.85,68.53c1.74-5.45,3.24-10.36,4.5-14.73,1.26-4.37,2.62-9.43,4.08-15.2,1.46-5.76,2.92-11.84,4.39-18.24s2.6-11.49,3.4-15.27c3.85,.09,6.97,.14,9.36,.14s5.51-.07,9.1-.21c3.59-.14,7.08-.21,10.45-.21,3.96,0,7.46,.16,10.5,.46,2.28,.22,4.3,.67,6.06,1.35s3.19,1.51,4.29,2.49c1.1,.98,1.95,2.07,2.56,3.28,.61,1.21,.99,2.63,1.13,4.25,.14,1.63,.01,3.37-.38,5.23-.44,2.08-1.11,4.02-2.02,5.83-.91,1.81-2.09,3.52-3.56,5.11-1.47,1.6-3.18,2.97-5.14,4.14-1.96,1.16-4.62,2.35-7.97,3.55l1.18,5.9c.33,1.64,.71,3.32,1.13,5.02l3.36,13.62c.16,.59,.41,1.75,.75,3.49-5.1-.06-8.53-.09-10.29-.09-2.23,0-5.89,.03-10.98,.09-.16-1.61-.43-4.6-.81-8.97-.14-1.83-.3-3.24-.46-4.23-.28-2.2-.73-5.28-1.36-9.25l-2.03-13.15c1.61,.31,3.22,.46,4.83,.46,2.26,0,4.38-.34,6.37-1.02,1.99-.68,3.6-1.73,4.85-3.16,1.24-1.42,2.03-2.93,2.37-4.51,.28-1.33,.17-2.5-.33-3.51s-1.47-1.76-2.9-2.25c-1.43-.5-3.74-.74-6.93-.74-1.08,0-2.21,.02-3.38,.07-1.17,.05-2.54,.08-4.09,.12-1.73,6.35-3.71,14.1-5.94,23.24-2.23,9.14-4.31,18.11-6.25,26.91-5.17-.06-8.53-.09-10.08-.09-1.8,0-5.05,.03-9.74,.09Z"/><path class="cls-1" d="M111.31,68.53l5.27-6.71,33.56-45.37,3.62-5.08c1.06-1.49,2.54-3.63,4.46-6.43,5.44,.06,9.41,.09,11.92,.09,4.37,0,8.42-.03,12.15-.09l2.71,19.42,5.96,37.36,1.27,6.8c-5.35-.06-8.6-.09-9.75-.09-2.61,0-6.44,.03-11.51,.09-.29-5.12-.99-11.15-2.1-18.07h-23.39c-3.84,5.47-7.89,11.49-12.15,18.07-5.76-.06-9.29-.09-10.59-.09-2.36,0-6.16,.03-11.42,.09Zm42.61-31.55h14.43c-1.29-10.92-1.99-16.93-2.1-18.04-3,4.55-5.52,8.27-7.55,11.18l-4.79,6.87Z"/><path class="cls-2" d="M226.68,68.53l2.98-9.76,8.77-33.09,3.32-13.34,1.52-7.25c4.8,.06,9.04,.09,12.73,.09,2.64,0,6.35-.03,11.14-.09l12.25,36.08,1.62,5.3c1.44-5.21,3.34-12.5,5.68-21.9,2.34-9.39,3.89-15.88,4.64-19.48,3.79,.06,6.84,.09,9.13,.09,1.05,0,4.09-.03,9.12-.09l-4.03,13.85-10.18,38.48-2.61,11.11c-4.02-.06-7.78-.09-11.28-.09-2.92,0-6.95,.03-12.11,.09-.97-3.04-1.7-5.24-2.19-6.6l-5.01-13.25c-1.66-4.34-3.15-8.49-4.48-12.46-.9-2.51-1.79-5.27-2.67-8.27l-5.63,22.04-4.38,18.55c-3.83-.06-6.74-.09-8.75-.09-1.7,0-4.9,.03-9.58,.09Z"/><path class="cls-2" d="M304.7,68.53c2.46-7.99,4.43-14.68,5.92-20.08,1.49-5.39,3.36-12.55,5.59-21.49,2.24-8.94,3.66-14.86,4.27-17.78l.81-4.09c7.3,.06,16.13,.09,26.51,.09,9.57,0,18.02-.03,25.34-.09l-.42,1.53c-.11,.37-.47,1.71-1.08,4.03l-1.34,5.05c-.29,1.08-.55,2.18-.78,3.29-5.93-.25-10.92-.37-14.98-.37-4.46,0-7.48,0-9.04,.02-1.57,.02-4.02,.08-7.36,.21l-2.81,10.69c3.64,.09,7.89,.14,12.75,.14,1.74,0,6.38-.11,13.92-.33-1.14,3.97-2.43,8.69-3.86,14.17-5.34-.06-9.46-.09-12.33-.09-4.27,0-9.08,.11-14.42,.33l-2.93,11.29h5.34c1.58,0,4.86-.05,9.83-.14l9.66-.23c1.43-.03,3.84-.16,7.23-.37-1.34,4.59-2.64,9.33-3.92,14.22-7.55-.06-15.83-.09-24.84-.09l-20.46,.05-6.61,.05Z"/><path class="cls-2" d="M367.39,68.53c1.74-5.45,3.24-10.36,4.5-14.73,1.26-4.37,2.62-9.43,4.08-15.2,1.46-5.76,2.92-11.84,4.39-18.24s2.6-11.49,3.4-15.27c3.85,.09,6.97,.14,9.36,.14s5.51-.07,9.1-.21c3.59-.14,7.08-.21,10.45-.21,3.96,0,7.46,.16,10.5,.46,2.28,.22,4.3,.67,6.06,1.35,1.76,.68,3.19,1.51,4.29,2.49,1.09,.98,1.95,2.07,2.56,3.28,.61,1.21,.99,2.63,1.13,4.25,.14,1.63,.01,3.37-.38,5.23-.44,2.08-1.11,4.02-2.02,5.83-.91,1.81-2.09,3.52-3.56,5.11-1.47,1.6-3.18,2.97-5.14,4.14s-4.62,2.35-7.97,3.55l1.18,5.9c.33,1.64,.71,3.32,1.13,5.02l3.36,13.62c.16,.59,.41,1.75,.75,3.49-5.1-.06-8.53-.09-10.29-.09-2.23,0-5.89,.03-10.98,.09-.16-1.61-.43-4.6-.81-8.97-.14-1.83-.3-3.24-.46-4.23-.28-2.2-.73-5.28-1.36-9.25l-2.03-13.15c1.61,.31,3.22,.46,4.83,.46,2.26,0,4.39-.34,6.37-1.02,1.99-.68,3.6-1.73,4.85-3.16,1.25-1.42,2.03-2.93,2.37-4.51,.28-1.33,.17-2.5-.33-3.51s-1.47-1.76-2.9-2.25c-1.43-.5-3.74-.74-6.93-.74-1.08,0-2.21,.02-3.38,.07-1.17,.05-2.54,.08-4.09,.12-1.73,6.35-3.71,14.1-5.94,23.24-2.23,9.14-4.31,18.11-6.25,26.91-5.17-.06-8.53-.09-10.08-.09-1.8,0-5.05,.03-9.74,.09Z"/></g></svg>